<svg width="228" height="60" viewBox="0 0 228 60" fill="none" xmlns="http://www.w3.org/2000/svg">
<path fill-rule="evenodd" clip-rule="evenodd" d="M112 60H0V-2.38419e-06H4.48V57.6H112V60Z" fill="white"/>
<path fill-rule="evenodd" clip-rule="evenodd" d="M116 1.90735e-06H228V60H223.52V2.4H116V1.90735e-06Z" fill="white"/>
<path d="M42.28 15.3H45.765V44H42.28V15.3ZM57.04 15.3H61.345L48.922 28.748L61.96 44H57.655L44.699 28.83L57.04 15.3ZM68.2096 35.39L69.4396 32.11H82.1496L83.3796 35.39H68.2096ZM75.7126 21.778L70.8746 33.176L70.5466 33.914L66.2826 44H62.3876L75.7126 13.865L89.0376 44H85.1426L80.9606 34.16L80.6326 33.34L75.7126 21.778ZM98.695 37.522L108.125 15.3H112.02L98.695 45.435L85.37 15.3H89.265L98.695 37.522ZM132.774 15.3H136.669L127.116 31.618V44H123.631V31.659L114.078 15.3H117.973L125.353 28.584L132.774 15.3ZM138.798 35.39L140.028 32.11H152.738L153.968 35.39H138.798ZM146.301 21.778L141.463 33.176L141.135 33.914L136.871 44H132.976L146.301 13.865L159.626 44H155.731L151.549 34.16L151.221 33.34L146.301 21.778ZM157.365 18.58V15.3H175.61V18.58H168.23V44H164.745V18.58H157.365ZM177.957 35.39L179.187 32.11H191.897L193.127 35.39H177.957ZM185.46 21.778L180.622 33.176L180.294 33.914L176.03 44H172.135L185.46 13.865L198.785 44H194.89L190.708 34.16L190.38 33.34L185.46 21.778Z" fill="white"/>
</svg>
